<svg viewBox="0 0 120 120" xmlns="http://www.w3.org/2000/svg" role="img" aria-label="BloodMatch Mark">
  <!-- Background circle (optional, remove for transparent) -->
  <circle cx="60" cy="60" r="58" fill="#FFF5F5" stroke="#FFE0E0" />
  <!-- Outer pin/heart -->
  <path d="M60 26c19.9 0 36 16.1 36 36 0 28-27.5 49.6-34.5 54.9a3.5 3.5 0 0 1-4 0C50.5 111.6 23 90 23 62c0-19.9 16.1-36 36-36z" fill="#E53935"/>
  <!-- Inner drop -->
  <path d="M60 46c10.5 0 19 8.5 19 19 0 14.7-14.5 26.1-18.3 28.8a2.5 2.5 0 0 1-2.9 0C53 91.1 38.5 79.7 38.5 65 38.5 54.5 47 46 57.5 46H60z" fill="#FFFFFF" opacity="0.95"/>
  <!-- Subtle highlight -->
  <circle cx="78" cy="38" r="6" fill="white" opacity="0.65"/>
</svg>